<?xml version="1.0" encoding="UTF-8"?>
<svg xmlns="http://www.w3.org/2000/svg" xmlns:xlink="http://www.w3.org/1999/xlink" viewBox="0 0 104.66 104.67">
  <defs>
    <style>
      .cls-1 {
        fill: #fff;
      }

      .cls-2 {
        fill: #fbbca0;
      }

      .cls-3 {
        fill: #7a4b35;
      }

      .cls-4 {
        isolation: isolate;
      }

      .cls-5 {
        fill: #dda78f;
      }

      .cls-6 {
        fill: #002136;
      }

      .cls-7 {
        fill: #3c2415;
      }

      .cls-8 {
        fill: #d1d3d4;
      }

      .cls-8, .cls-9 {
        mix-blend-mode: multiply;
      }

      .cls-10 {
        fill: #e2e3e4;
      }

      .cls-11 {
        fill: #fbb040;
      }

      .cls-12 {
        clip-path: url(#clippath);
      }

      .cls-13 {
        fill: none;
      }

      .cls-14 {
        fill: #002c41;
      }

      .cls-9 {
        fill: #e6e7e8;
      }
    </style>
    <clipPath id="clippath">
      <circle class="cls-13" cx="52.33" cy="52.33" r="52.33" transform="translate(-3.56 100.84) rotate(-85.95)"/>
    </clipPath>
  </defs>
  <g class="cls-4">
    <g id="Layer_2" data-name="Layer 2">
      <g id="Capa_1" data-name="Capa 1">
        <g class="cls-12">
          <circle class="cls-3" cx="52.33" cy="52.33" r="52.33" transform="translate(-3.56 100.84) rotate(-85.95)"/>
          <rect class="cls-2" x="42.06" y="66.78" width="20.04" height="13.5"/>
          <path class="cls-9" d="m46.92,76.54c3.02,1.2,6.33,1.92,9.58,1.95,1.86.02,3.76-.22,5.6-.54v-11.17h-20.04v6.98c1.41,1.24,3.21,2.12,4.86,2.78Z"/>
          <g>
            <path class="cls-2" d="m74.19,41.77c.07-.49.93-1.29,1.31-1.56.84-.6,1.68.02,1.93.8.22.7.24,1.49.29,2.21.13,1.77-.15,3.51-.97,5.11-.55,1.07-1.41,1.94-2.43,2.6,0,0-1.1.53-1.32-.69,0,0,1.19-8.47,1.19-8.48Z"/>
            <path class="cls-5" d="m74.02,42.83c.05-.35.67-.92.93-1.12.6-.43,1.21.01,1.38.57.16.5.17,1.06.21,1.58.09,1.27-.11,2.51-.7,3.65-.39.76-1.01,1.39-1.74,1.86,0,0-.79.38-.94-.49,0,0,.85-6.06.85-6.07Z"/>
          </g>
          <g>
            <path class="cls-2" d="m29.45,41.77c-.07-.49-.93-1.29-1.31-1.56-.84-.6-1.68.02-1.93.8-.22.7-.24,1.49-.29,2.21-.13,1.77.15,3.51.97,5.11.55,1.07,1.41,1.94,2.43,2.6,0,0,1.1.53,1.32-.69,0,0-1.19-8.47-1.19-8.48Z"/>
            <path class="cls-5" d="m29.62,42.83c-.05-.35-.66-.92-.93-1.12-.6-.43-1.21.01-1.38.57-.16.5-.17,1.06-.21,1.58-.09,1.27.11,2.51.7,3.65.39.76,1.01,1.39,1.74,1.86,0,0,.79.38.94-.49,0,0-.85-6.06-.85-6.07Z"/>
          </g>
          <path class="cls-2" d="m74.87,43.37c0,5.59-1,11.24-3.72,16.08-2.38,4.23-5.94,7.62-9.77,10.32-3.11,2.19-6.44,4.75-10.37,4.44-4.1-.33-7.29-3.71-10.29-6.35-4.21-3.72-7.54-8.33-9.58-13.76-1.26-3.35-1.84-7.12-1.84-10.72,0-18.07,10.2-29.43,22.78-29.43s22.78,11.36,22.78,29.43Z"/>
          <path class="cls-2" d="m87.07,86.39l-24.98-6.53h-20.04l-24.98,6.53s-11.58,4.29-12.86,17.86h95.72c-1.29-13.57-12.86-17.86-12.86-17.86Z"/>
          <path class="cls-1" d="m87.07,86.39l-24.98-6.53h-20.04l-24.98,6.53s-11.58,4.29-12.86,17.86h95.72c-1.29-13.57-12.86-17.86-12.86-17.86Z"/>
          <path class="cls-14" d="m87.07,86.39l-18.48-4.83-16.51,22.7-16.34-22.74-18.66,4.88s-11.58,4.29-12.86,17.86h95.72c-1.29-13.57-12.86-17.86-12.86-17.86Z"/>
          <polygon class="cls-11" points="49.89 92.88 45.28 104.25 58.36 104.25 53.87 92.88 49.89 92.88"/>
          <g>
            <polygon class="cls-11" points="51.78 80.08 45.92 87.94 49.99 92.91 51.98 92.88 53.98 92.84 57.89 87.74 51.78 80.08"/>
            <path class="cls-8" d="m55.69,86.91c-.75,1.48-2.14,3.17-4.04,2.75-1.96-.43-2.86-2.28-2.4-4.16.44-1.83,1.62-3.36,2.28-5.09l-5.62,7.53,4.07,4.97,3.99-.06,3.91-5.1-1.65-2.07c-.16.42-.34.84-.54,1.24Z"/>
          </g>
          <path class="cls-7" d="m29.35,41.14s3.34-20.35,13.77-18.35c0,0,9.43,5.87,17.29-.14,0,0,9.54-.32,14.77,18.48,0,0,1.31-20.06-13.09-27.21,0,0-13.32-6.14-24.72,3,0,0-10.8,8.53-8.03,24.21Z"/>
          <polygon class="cls-6" points="52.08 104.25 35.74 81.51 22.68 84.92 39.37 96.67 35.09 98.56 42.8 104.25 52.08 104.25"/>
          <polygon class="cls-6" points="52.08 104.28 68.41 81.54 81.47 84.95 64.78 96.7 69.07 98.59 61.35 104.28 52.08 104.28"/>
          <polygon class="cls-10" points="32.23 80.33 42.02 75.74 52.01 79.91 62 75.74 72.46 80.33 57.66 90.24 52.01 82.14 45.92 90.24 32.23 80.33"/>
        </g>
      </g>
    </g>
  </g>
</svg>