<?xml version="1.0" encoding="UTF-8"?>
<svg xmlns="http://www.w3.org/2000/svg" xmlns:xlink="http://www.w3.org/1999/xlink" viewBox="0 0 104.66 104.66">
  <defs>
    <style>
      .cls-1 {
        fill: #fff;
      }

      .cls-2 {
        fill: #fbbca0;
      }

      .cls-3 {
        fill: #174748;
      }

      .cls-4 {
        isolation: isolate;
      }

      .cls-5 {
        fill: #dda78f;
      }

      .cls-6 {
        fill: #023435;
      }

      .cls-7 {
        fill: #d1d3d4;
      }

      .cls-7, .cls-8 {
        mix-blend-mode: multiply;
      }

      .cls-9 {
        fill: #e2e3e4;
      }

      .cls-10 {
        clip-path: url(#clippath);
      }

      .cls-11 {
        fill: none;
      }

      .cls-12 {
        fill: #150000;
      }

      .cls-13 {
        fill: #6c8f26;
      }

      .cls-14 {
        fill: #1e0500;
      }

      .cls-8 {
        fill: #e6e7e8;
      }

      .cls-15 {
        fill: #ec524f;
      }
    </style>
    <clipPath id="clippath">
      <circle class="cls-11" cx="52.33" cy="52.33" r="52.33"/>
    </clipPath>
  </defs>
  <g class="cls-4">
    <g id="Layer_2" data-name="Layer 2">
      <g id="Capa_1" data-name="Capa 1">
        <g class="cls-10">
          <circle class="cls-13" cx="52.33" cy="52.33" r="52.33"/>
          <rect class="cls-2" x="42.75" y="65.78" width="20.04" height="13.5"/>
          <path class="cls-8" d="m47.61,75.55c3.02,1.2,6.33,1.92,9.58,1.95,1.86.02,3.76-.22,5.6-.54v-11.17h-20.04v6.98c1.41,1.24,3.21,2.13,4.86,2.78Z"/>
          <g>
            <path class="cls-2" d="m73.7,40.78c.06-.49.88-1.29,1.23-1.56.79-.6,1.59.02,1.83.8.21.7.23,1.49.28,2.21.12,1.77-.14,3.51-.92,5.11-.52,1.07-1.34,1.94-2.3,2.6,0,0-1.04.53-1.25-.69,0,0,1.13-8.47,1.13-8.48Z"/>
            <path class="cls-5" d="m73.53,41.84c.05-.35.63-.92.88-1.12.57-.43,1.14.01,1.31.57.15.5.16,1.06.2,1.58.09,1.27-.1,2.51-.66,3.65-.37.76-.96,1.39-1.65,1.86,0,0-.75.38-.89-.49,0,0,.81-6.06.81-6.07Z"/>
          </g>
          <g>
            <path class="cls-2" d="m31.34,40.78c-.07-.49-.88-1.29-1.24-1.56-.79-.6-1.59.02-1.83.8-.21.7-.23,1.49-.28,2.21-.12,1.77.14,3.51.92,5.11.52,1.07,1.34,1.94,2.3,2.6,0,0,1.04.53,1.25-.69,0,0-1.13-8.47-1.13-8.48Z"/>
            <path class="cls-5" d="m31.51,41.84c-.05-.35-.63-.92-.88-1.12-.57-.43-1.14.01-1.31.57-.15.5-.16,1.06-.2,1.58-.09,1.27.1,2.51.66,3.65.37.76.96,1.39,1.65,1.86,0,0,.75.38.89-.49,0,0-.81-6.06-.81-6.07Z"/>
          </g>
          <path class="cls-2" d="m74.33,42.37c0,5.59-.94,11.24-3.52,16.08-2.25,4.23-5.63,7.62-9.25,10.32-2.94,2.19-6.09,4.75-9.82,4.44-3.88-.33-6.9-3.71-9.74-6.35-3.99-3.72-7.13-8.33-9.07-13.76-1.19-3.34-1.74-7.12-1.74-10.72,0-18.07,9.66-29.43,21.57-29.43s21.57,11.36,21.57,29.43Z"/>
          <path class="cls-2" d="m87.77,85.39l-24.98-6.53h-20.04l-24.98,6.53s-11.57,4.29-12.86,17.86h95.72c-1.29-13.57-12.86-17.86-12.86-17.86Z"/>
          <path class="cls-1" d="m87.77,85.39l-24.98-6.53h-20.04l-24.98,6.53s-11.57,4.29-12.86,17.86h95.72c-1.29-13.57-12.86-17.86-12.86-17.86Z"/>
          <path class="cls-3" d="m87.77,85.39l-18.48-4.83-16.51,22.7-16.33-22.74-18.66,4.88s-11.57,4.29-12.86,17.86h95.72c-1.29-13.57-12.86-17.86-12.86-17.86Z"/>
          <polygon class="cls-15" points="50.58 91.88 45.98 103.25 59.06 103.25 54.57 91.88 50.58 91.88"/>
          <g>
            <polygon class="cls-15" points="52.47 79.08 46.61 86.94 50.69 91.91 52.68 91.88 54.67 91.85 58.58 86.75 52.47 79.08"/>
            <path class="cls-7" d="m56.39,85.91c-.75,1.48-2.14,3.17-4.04,2.75-1.96-.43-2.86-2.28-2.4-4.16.44-1.83,1.62-3.36,2.28-5.09l-5.62,7.53,4.07,4.97,3.99-.06,3.91-5.1-1.65-2.07c-.16.42-.34.84-.54,1.24Z"/>
          </g>
          <polygon class="cls-6" points="52.77 103.25 36.44 80.51 23.38 83.93 40.07 95.68 35.78 97.57 43.5 103.25 52.77 103.25"/>
          <polygon class="cls-6" points="52.77 103.29 69.11 80.54 82.17 83.96 65.48 95.71 69.77 97.6 62.05 103.29 52.77 103.29"/>
          <polygon class="cls-9" points="32.92 79.34 42.72 74.74 52.71 78.91 62.69 74.74 73.16 79.34 58.36 89.25 52.71 81.15 46.61 89.25 32.92 79.34"/>
          <path class="cls-12" d="m65.4,65.5s5.41-5.12,6.61-9.64c0,0-6.39,5.76-8.62,5.15l2,4.49Z"/>
          <path class="cls-12" d="m41.65,67.03s-6.28-5.38-8-12.12c0,0,7.16,8.27,9.39,7.65l-1.39,4.46Z"/>
          <path class="cls-14" d="m56.59,58.17c3.55.05,5.48,1.27,5.48,1.27,3.11,1.47,3.91,5.46,3.91,5.46,0,0-2.14,2.37-4.76,4.05-5.91,4.9-8.62,4.28-8.62,4.28-3.36,0-5.72-2.1-5.72-2.1l-5.53-4.33c-.69-4.92,3.61-7.36,3.61-7.36,2.58-1.25,3.04-1.08,3.04-1.08,0,0,3.86-.45,4.8,1.08,0,0,.97-1.27,3.6-1.27"/>
          <path class="cls-2" d="m53.29,62.22s-2.43-1.21-5.96.09c0,0,5.36,5.68,11.44.07,0,0-3.26-1.52-5.49-.16Z"/>
        </g>
      </g>
    </g>
  </g>
</svg>