<?xml version="1.0" encoding="UTF-8"?>
<svg xmlns="http://www.w3.org/2000/svg" xmlns:xlink="http://www.w3.org/1999/xlink" viewBox="0 0 104.67 104.66">
  <defs>
    <style>
      .cls-1 {
        fill: #fff;
      }

      .cls-2 {
        fill: #fbbca0;
      }

      .cls-3 {
        isolation: isolate;
      }

      .cls-4 {
        fill: #be1e2d;
      }

      .cls-5 {
        fill: #dda78f;
      }

      .cls-6 {
        fill: #363436;
      }

      .cls-7 {
        fill: #bd1e2d;
      }

      .cls-8 {
        fill: #3c2415;
      }

      .cls-9 {
        fill: #d1d3d4;
      }

      .cls-9, .cls-10 {
        mix-blend-mode: multiply;
      }

      .cls-11 {
        fill: #e2e3e4;
      }

      .cls-12 {
        fill: #fbb040;
      }

      .cls-13 {
        clip-path: url(#clippath);
      }

      .cls-14 {
        fill: none;
      }

      .cls-10 {
        fill: #e6e7e8;
      }

      .cls-15 {
        fill: #414042;
      }
    </style>
    <clipPath id="clippath">
      <circle class="cls-14" cx="52.33" cy="52.33" r="52.33" transform="translate(-6.38 97.4) rotate(-82.51)"/>
    </clipPath>
  </defs>
  <g class="cls-3">
    <g id="Layer_2" data-name="Layer 2">
      <g id="Capa_1" data-name="Capa 1">
        <g class="cls-13">
          <circle class="cls-12" cx="52.33" cy="52.33" r="52.33" transform="translate(-6.38 97.4) rotate(-82.51)"/>
          <rect class="cls-2" x="44.08" y="68.44" width="20.04" height="13.5"/>
          <path class="cls-10" d="m48.95,78.21c3.02,1.2,6.33,1.92,9.58,1.95,1.86.02,3.76-.22,5.6-.54v-11.17h-20.04v6.98c1.41,1.24,3.2,2.12,4.86,2.78Z"/>
          <g>
            <path class="cls-2" d="m75.8,43.03c.07-.5.91-1.31,1.28-1.58.82-.61,1.65.02,1.89.81.21.71.23,1.51.29,2.24.12,1.79-.15,3.55-.95,5.17-.54,1.08-1.38,1.97-2.38,2.64,0,0-1.08.54-1.29-.7,0,0,1.17-8.58,1.17-8.58Z"/>
            <path class="cls-5" d="m75.63,44.11c.05-.36.65-.93.92-1.13.59-.43,1.18.01,1.35.58.15.51.17,1.08.2,1.6.09,1.28-.1,2.54-.68,3.7-.39.77-.99,1.41-1.71,1.89,0,0-.77.38-.92-.5,0,0,.84-6.14.84-6.14Z"/>
          </g>
          <g>
            <path class="cls-2" d="m31.9,43.03c-.07-.5-.91-1.31-1.28-1.58-.82-.61-1.65.02-1.89.81-.21.71-.23,1.51-.29,2.24-.13,1.79.15,3.55.95,5.17.54,1.08,1.38,1.97,2.38,2.64,0,0,1.08.54,1.29-.7,0,0-1.17-8.58-1.17-8.58Z"/>
            <path class="cls-5" d="m32.07,44.11c-.05-.36-.65-.93-.92-1.13-.59-.43-1.18.01-1.35.58-.15.51-.17,1.08-.2,1.6-.09,1.28.1,2.54.68,3.7.39.77.99,1.41,1.71,1.89,0,0,.77.38.92-.5,0,0-.84-6.14-.84-6.14Z"/>
          </g>
          <path class="cls-2" d="m76.46,44.65c0,5.66-.98,11.38-3.64,16.27-2.33,4.28-5.83,7.71-9.59,10.45-3.05,2.22-6.32,4.81-10.17,4.49-4.02-.33-7.15-3.76-10.09-6.43-4.13-3.76-7.39-8.43-9.4-13.93-1.24-3.39-1.81-7.21-1.81-10.86,0-18.29,10.01-29.79,22.35-29.79s22.35,11.5,22.35,29.79Z"/>
          <path class="cls-2" d="m89.1,88.05l-24.98-6.53h-20.04l-24.98,6.53s-11.57,4.29-12.86,17.86h95.72c-1.29-13.57-12.86-17.86-12.86-17.86Z"/>
          <path class="cls-1" d="m89.1,88.05l-24.98-6.53h-20.04l-24.98,6.53s-11.57,4.29-12.86,17.86h95.72c-1.29-13.57-12.86-17.86-12.86-17.86Z"/>
          <path class="cls-8" d="m37.77,23.6s7.5,11.15,26.36,12.44c0,0-1.58-.71-3.44-5.57,0,0,6.15,5.29,13.94,8.72l1.79,3.63s-.01-1.85,1.7-1.53c0,0,1.43-14.53-4.57-21.68,0,0,2.87.14,4.72,1.72,0,0-2.72-5.72-12.01-8.86,0,0,2.29-1.86,6.43-.57,0,0-5.48-2.57-14.67-2.14,0,0-18.02-.72-20.25,13.86Z"/>
          <path class="cls-8" d="m40.69,26.25l-8.89,16.48s-.79-.95-1.17-1.28c0,0-.46-22.64,12.08-26.93l-2.01,11.72Z"/>
          <path class="cls-15" d="m89.1,88.05l-18.48-4.83-16.51,22.7-16.34-22.74-18.66,4.88s-11.57,4.29-12.86,17.86h95.72c-1.29-13.57-12.86-17.86-12.86-17.86Z"/>
          <polygon class="cls-7" points="51.91 94.54 47.31 105.91 60.39 105.91 55.9 94.54 51.91 94.54"/>
          <g>
            <polygon class="cls-4" points="53.8 81.74 47.95 89.6 52.02 94.57 54.01 94.54 56.01 94.5 59.91 89.4 53.8 81.74"/>
            <path class="cls-9" d="m57.72,88.57c-.75,1.48-2.14,3.17-4.04,2.75-1.96-.43-2.85-2.28-2.4-4.16.44-1.83,1.62-3.36,2.28-5.09l-5.62,7.53,4.07,4.97,3.99-.06,3.91-5.1-1.65-2.07c-.16.42-.34.84-.54,1.24Z"/>
          </g>
          <polygon class="cls-6" points="54.11 105.91 37.77 83.17 24.71 86.58 41.4 98.33 37.11 100.22 44.83 105.91 54.11 105.91"/>
          <polygon class="cls-6" points="54.11 105.94 70.44 83.2 83.5 86.61 66.81 98.36 71.1 100.26 63.38 105.94 54.11 105.94"/>
          <polygon class="cls-11" points="34.25 81.99 44.05 77.4 54.04 81.57 64.02 77.4 74.49 81.99 59.69 91.9 54.04 83.8 47.95 91.9 34.25 81.99"/>
        </g>
      </g>
    </g>
  </g>
</svg>