<?xml version="1.0" encoding="UTF-8"?>
<svg xmlns="http://www.w3.org/2000/svg" xmlns:xlink="http://www.w3.org/1999/xlink" viewBox="0 0 104.66 104.66">
  <defs>
    <style>
      .cls-1 {
        fill: #fbbca0;
      }

      .cls-2 {
        isolation: isolate;
      }

      .cls-3 {
        fill: #dda78f;
      }

      .cls-4 {
        fill: #00b9c5;
      }

      .cls-5 {
        fill: #fbb040;
      }

      .cls-6 {
        clip-path: url(#clippath);
      }

      .cls-7 {
        fill: none;
      }

      .cls-8 {
        fill: #a36625;
      }

      .cls-9 {
        fill: #e6e7e8;
        mix-blend-mode: multiply;
      }

      .cls-10 {
        fill: #ec524f;
      }
    </style>
    <clipPath id="clippath">
      <circle class="cls-7" cx="52.33" cy="52.33" r="52.33"/>
    </clipPath>
  </defs>
  <g class="cls-2">
    <g id="Layer_2" data-name="Layer 2">
      <g id="Capa_1" data-name="Capa 1">
        <g class="cls-6">
          <circle class="cls-10" cx="52.33" cy="52.33" r="52.33"/>
          <g>
            <path class="cls-8" d="m27.8,48.01c-.29.43-1.19,36.82,5.2,44.27h36.2s9.89-27.94,3.15-44.27H27.59"/>
            <g>
              <rect class="cls-1" x="42.31" y="68.01" width="20.04" height="13.5"/>
              <path class="cls-9" d="m47.17,77.78c3.02,1.2,6.33,1.92,9.58,1.95,1.86.01,3.76-.22,5.6-.54v-11.17h-20.04v6.98c1.41,1.24,3.2,2.13,4.86,2.78Z"/>
              <g>
                <path class="cls-1" d="m74.02,42.6c.07-.5.91-1.31,1.28-1.58.82-.61,1.65.02,1.89.81.21.71.24,1.51.29,2.24.13,1.79-.15,3.55-.95,5.17-.54,1.08-1.38,1.97-2.38,2.64,0,0-1.08.54-1.29-.7,0,0,1.17-8.58,1.17-8.58Z"/>
                <path class="cls-3" d="m73.85,43.68c.05-.36.65-.93.92-1.13.59-.44,1.18.01,1.36.58.15.51.17,1.08.21,1.6.09,1.28-.1,2.54-.68,3.7-.39.77-.99,1.41-1.71,1.89,0,0-.77.38-.92-.5,0,0,.84-6.14.84-6.14Z"/>
              </g>
              <g>
                <path class="cls-1" d="m30.13,42.6c-.07-.5-.91-1.31-1.28-1.58-.82-.61-1.65.02-1.89.81-.21.71-.23,1.51-.29,2.24-.12,1.79.15,3.55.95,5.17.54,1.08,1.38,1.97,2.38,2.64,0,0,1.08.54,1.29-.7,0,0-1.17-8.58-1.17-8.58Z"/>
                <path class="cls-3" d="m30.3,43.68c-.05-.36-.65-.93-.92-1.13-.59-.44-1.18.01-1.35.58-.15.51-.17,1.08-.21,1.6-.09,1.28.1,2.54.68,3.7.39.77.99,1.41,1.71,1.89,0,0,.77.38.92-.5,0,0-.84-6.14-.84-6.14Z"/>
              </g>
              <path class="cls-1" d="m74.68,44.22c0,5.66-.98,11.38-3.64,16.27-2.33,4.28-5.83,7.71-9.59,10.45-3.05,2.22-6.32,4.81-10.17,4.49-4.02-.33-7.15-3.76-10.09-6.43-4.13-3.76-7.39-8.43-9.4-13.93-1.24-3.39-1.81-7.21-1.81-10.86,0-18.29,10.01-29.79,22.35-29.79s22.35,11.5,22.35,29.79Z"/>
              <path class="cls-1" d="m82.82,87.62l-21.76-6.53h-17.46l-21.76,6.53s-10.08,4.29-11.21,17.86h83.39c-1.12-13.57-11.21-17.86-11.21-17.86Z"/>
              <path class="cls-4" d="m76.35,85.68l-5.56-1.67-18.46,18.44-18.51-18.43-4.35,1.3s1.63,6.58.51,20.15h45.2c-1.12-13.57,1.17-19.8,1.17-19.8Z"/>
            </g>
          </g>
          <path class="cls-5" d="m31.3,33.39s5.29,2.69,19.05,3.4l3.01-9.77.72,9.77s4.16.29,11.32-.86l1.29-5.44,1.58,5.16s3.87-.29,5-2.68c0,0-2.27-17.95-18.89-19.53,0,0-18.83.27-23.06,19.95Z"/>
          <path class="cls-5" d="m40.17,16.22c-.51-.25,2.12-3.57,2.27-3.73,2.98-2.99,7.51-4.02,11.6-3.77,11,.66,19.4,7.3,23.25,17.58,1.33,3.54,2.24,7.58,2.57,11.35,0,0,2.15,24.66,0,49.08,0,0-.86,8.4-.14,17.49,0,0-9.03,2.14-8.6-15.14l.86-24.64,1.27-21.68s.59-10.13-3.42-11.99c0,0-29.63-14.54-29.66-14.55Z"/>
          <path class="cls-5" d="m46.59,13.23s-18.89.65-17.74,27.79l1.13,1.55s6.04-16.1,15.78-19.69l.83-9.66Z"/>
          <path class="cls-5" d="m36.81,83.13l-7.34,2.2c-4.06-12.43-1.85-36.08-1.85-36.08,0,0,1.7,3.09,3.25,2.75,0,0,1.28,4.57,2.59,6.92-.01,6.61.23,16.54,3.35,24.21Z"/>
        </g>
      </g>
    </g>
  </g>
</svg>