<?xml version="1.0" encoding="UTF-8"?>
<svg xmlns="http://www.w3.org/2000/svg" xmlns:xlink="http://www.w3.org/1999/xlink" viewBox="0 0 104.67 104.67">
  <defs>
    <style>
      .cls-1 {
        fill: #fff;
      }

      .cls-2 {
        fill: #fbbca0;
      }

      .cls-3 {
        fill: #14baab;
      }

      .cls-4 {
        isolation: isolate;
      }

      .cls-5 {
        fill: #f5834e;
      }

      .cls-6 {
        fill: #dda78f;
      }

      .cls-7 {
        fill: #270000;
      }

      .cls-8 {
        fill: #d1d3d4;
      }

      .cls-8, .cls-9 {
        mix-blend-mode: multiply;
      }

      .cls-10 {
        fill: #e2e3e4;
      }

      .cls-11 {
        clip-path: url(#clippath);
      }

      .cls-12 {
        fill: none;
      }

      .cls-13 {
        fill: #3c0000;
      }

      .cls-14 {
        fill: #150000;
      }

      .cls-15 {
        fill: #1e0500;
      }

      .cls-9 {
        fill: #e6e7e8;
      }
    </style>
    <clipPath id="clippath">
      <circle class="cls-12" cx="52.33" cy="52.33" r="52.33" transform="translate(-21.68 52.33) rotate(-45)"/>
    </clipPath>
  </defs>
  <g class="cls-4">
    <g id="Layer_2" data-name="Layer 2">
      <g id="Capa_1" data-name="Capa 1">
        <g class="cls-11">
          <circle class="cls-5" cx="52.33" cy="52.33" r="52.33" transform="translate(-21.68 52.33) rotate(-45)"/>
          <rect class="cls-2" x="42.31" y="69.56" width="20.04" height="13.5"/>
          <path class="cls-9" d="m47.17,79.33c3.02,1.2,6.33,1.92,9.58,1.95,1.86.02,3.76-.22,5.6-.54v-11.18h-20.04v6.98c1.41,1.24,3.2,2.13,4.86,2.78Z"/>
          <g>
            <path class="cls-2" d="m73.26,44.56c.06-.49.88-1.29,1.24-1.56.79-.6,1.59.02,1.83.8.21.7.23,1.49.28,2.21.12,1.77-.14,3.51-.92,5.11-.52,1.07-1.34,1.94-2.3,2.6,0,0-1.04.53-1.25-.69,0,0,1.13-8.47,1.13-8.48Z"/>
            <path class="cls-6" d="m73.09,45.62c.05-.35.63-.92.88-1.12.57-.43,1.14.01,1.31.57.15.5.16,1.06.2,1.59.09,1.27-.1,2.51-.66,3.65-.37.76-.96,1.39-1.65,1.86,0,0-.74.38-.89-.49,0,0,.81-6.06.81-6.07Z"/>
          </g>
          <g>
            <path class="cls-2" d="m30.9,44.56c-.06-.49-.88-1.29-1.24-1.56-.79-.6-1.59.02-1.83.8-.21.7-.23,1.49-.28,2.21-.12,1.77.14,3.51.92,5.11.52,1.07,1.33,1.94,2.3,2.6,0,0,1.04.53,1.25-.69,0,0-1.13-8.47-1.13-8.48Z"/>
            <path class="cls-6" d="m31.06,45.62c-.05-.35-.63-.92-.88-1.12-.57-.43-1.14.01-1.31.57-.15.5-.16,1.06-.2,1.59-.09,1.27.1,2.51.66,3.65.37.76.96,1.39,1.65,1.86,0,0,.74.38.89-.49,0,0-.81-6.06-.81-6.07Z"/>
          </g>
          <path class="cls-2" d="m73.89,46.15c0,5.59-.94,11.24-3.52,16.08-2.25,4.23-5.63,7.62-9.25,10.32-2.94,2.19-6.09,4.75-9.82,4.44-3.88-.33-6.9-3.71-9.74-6.35-3.99-3.72-7.13-8.33-9.07-13.76-1.19-3.35-1.74-7.12-1.74-10.72,0-18.07,9.66-29.43,21.57-29.43s21.57,11.36,21.57,29.43Z"/>
          <path class="cls-2" d="m87.33,89.17l-24.98-6.53h-20.04l-24.98,6.53s-11.57,4.29-12.86,17.86h95.71c-1.29-13.57-12.86-17.86-12.86-17.86Z"/>
          <path class="cls-1" d="m87.33,89.17l-24.98-6.53h-20.04l-24.98,6.53s-11.57,4.29-12.86,17.86h95.71c-1.29-13.57-12.86-17.86-12.86-17.86Z"/>
          <path class="cls-13" d="m87.33,89.17l-18.48-4.83-16.51,22.7-16.33-22.74-18.66,4.88s-11.57,4.29-12.86,17.86h95.71c-1.29-13.57-12.86-17.86-12.86-17.86Z"/>
          <polygon class="cls-3" points="50.14 95.66 45.54 107.03 58.62 107.03 54.13 95.66 50.14 95.66"/>
          <g>
            <polygon class="cls-3" points="52.03 82.86 46.17 90.72 50.24 95.69 52.24 95.66 54.23 95.63 58.14 90.53 52.03 82.86"/>
            <path class="cls-8" d="m55.94,89.69c-.75,1.48-2.14,3.17-4.04,2.75-1.96-.43-2.85-2.28-2.4-4.16.44-1.83,1.62-3.36,2.28-5.09l-5.62,7.53,4.07,4.97,3.99-.07,3.91-5.1-1.65-2.07c-.16.42-.34.84-.54,1.24Z"/>
          </g>
          <polygon class="cls-7" points="52.33 107.03 36 84.29 22.94 87.71 39.63 99.46 35.34 101.35 43.06 107.03 52.33 107.03"/>
          <polygon class="cls-7" points="52.33 107.07 68.67 84.32 81.73 87.74 65.04 99.49 69.32 101.38 61.61 107.07 52.33 107.07"/>
          <polygon class="cls-10" points="32.48 83.12 42.28 78.52 52.26 82.69 62.25 78.52 72.72 83.12 57.92 93.03 52.26 84.93 46.17 93.03 32.48 83.12"/>
          <path class="cls-14" d="m64.96,69.28s5.42-5.12,6.61-9.64c0,0-6.39,5.76-8.62,5.15l2,4.49Z"/>
          <path class="cls-14" d="m41.21,70.81s-6.28-5.38-8-12.12c0,0,7.16,8.27,9.39,7.65l-1.39,4.47Z"/>
          <path class="cls-15" d="m56.15,61.95c3.55.05,5.48,1.27,5.48,1.27,3.11,1.47,3.91,5.46,3.91,5.46,0,0-2.14,2.37-4.76,4.05-5.91,4.9-8.62,4.28-8.62,4.28-3.36,0-5.72-2.1-5.72-2.1l-5.53-4.33c-.69-4.92,3.61-7.36,3.61-7.36,2.58-1.25,3.04-1.09,3.04-1.09,0,0,3.86-.45,4.8,1.08,0,0,.97-1.27,3.6-1.27"/>
          <path class="cls-2" d="m52.85,66s-2.43-1.21-5.96.09c0,0,5.36,5.68,11.44.07,0,0-3.26-1.52-5.49-.16Z"/>
          <path class="cls-14" d="m74.08,19.5c4.86-3.54,4.33-8.98,4.33-8.98-2.83,3.11-6.97,3.51-6.97,3.51,4.29-2.57,2.16-7.93,2.16-7.93-1.34,3-7.3,4.72-7.3,4.72,2.89-1.93,1.09-6.32,1.09-6.32-2.02,3.43-8.06,4.93-8.06,4.93,3.97-2.25,4.39-5.47,4.39-5.47-3.54,3.11-13.18,4.61-13.18,4.61,0,0-10.63.97-13.27,9.8-7.77,1.12-7.84,14.26-7.3,21.35h0s.49,8.58.49,8.58h1.73c-.77-4.11,0-9.68,0-9.68h0c1.19-3.99,1.8-6.35,2.56-8.02,1.84-4.02,4.71-5.24,6.54-5.6l1.74-.13c7.61-1.11,9.85,4.29,9.85,4.29,1.18-3.11,5.15-3.86,5.15-3.86,11.57-1.54,13.23,7.61,13.23,7.61l1.31,5.82c.18,1.94.49,6.43-.1,9.57h1.73l.49-8.58c.01-.27.01-.5,0-.71.87-4.78,1.64-12.58-.62-19.51Z"/>
        </g>
      </g>
    </g>
  </g>
</svg>