<?xml version="1.0" encoding="UTF-8"?>
<svg xmlns="http://www.w3.org/2000/svg" xmlns:xlink="http://www.w3.org/1999/xlink" viewBox="0 0 104.67 104.66">
  <defs>
    <style>
      .cls-1 {
        fill: #fbbca0;
      }

      .cls-2 {
        isolation: isolate;
      }

      .cls-3 {
        fill: #18add9;
      }

      .cls-4 {
        fill: #cdcfd0;
      }

      .cls-5 {
        fill: #e2e3e4;
      }

      .cls-6 {
        clip-path: url(#clippath);
      }

      .cls-7 {
        fill: none;
      }

      .cls-8 {
        fill: #231f20;
      }

      .cls-9 {
        fill: #003a54;
      }

      .cls-10 {
        fill: #e6e7e8;
        mix-blend-mode: multiply;
      }
    </style>
    <clipPath id="clippath">
      <circle class="cls-7" cx="52.33" cy="52.33" r="52.33"/>
    </clipPath>
  </defs>
  <g class="cls-2">
    <g id="Layer_2" data-name="Layer 2">
      <g id="Capa_1" data-name="Capa 1">
        <g class="cls-6">
          <circle class="cls-3" cx="52.33" cy="52.33" r="52.33"/>
          <g>
            <g>
              <path class="cls-8" d="m36.33,49.42c-.23.32-.77,27.52,4.32,33.06l28.63-.18s7.69-20.93,2.29-33.1l-35.41.22"/>
              <g>
                <rect class="cls-1" x="43.95" y="66.54" width="20.04" height="13.5" transform="translate(-.46 .34) rotate(-.36)"/>
                <path class="cls-10" d="m48.83,76.34c3.03,1.18,6.34,1.88,9.6,1.89,1.86,0,3.76-.24,5.59-.58l-.07-11.17-20.04.12.04,6.98c1.41,1.23,3.22,2.11,4.88,2.75Z"/>
                <path class="cls-1" d="m76.13,42.61c.03,5.66-.91,11.38-3.54,16.3-2.31,4.3-5.78,7.75-9.52,10.51-3.03,2.24-6.29,4.85-10.14,4.56-4.02-.3-7.18-3.71-10.13-6.37-4.15-3.73-7.44-8.39-9.49-13.87-1.26-3.38-1.85-7.2-1.87-10.85-.11-18.29,9.82-29.86,22.17-29.93,12.34-.08,22.42,11.36,22.54,29.65Z"/>
                <path class="cls-1" d="m84.54,85.96l-21.8-6.4-8.73.05-8.73.05-21.72,6.67s-10.06,4.35-11.09,17.93l41.7-.26,41.7-.26c-1.21-13.57-11.32-17.79-11.32-17.79Z"/>
                <path class="cls-9" d="m84.54,85.96l-12.06-3.54-18.34,18.56-18.63-18.31-11.96,3.67s-10.29,4.42-11.09,17.93l60.97-.38,22.85-.14c-2.12-14.07-11.74-17.79-11.74-17.79Z"/>
              </g>
            </g>
            <path class="cls-8" d="m32.68,32.05c5.28,5.11,22.09,3.9,20.03,3.81l1.98-10.32,1.31,10.47s3.16,1.22,10.32.03l1.72-7.12,1.27,6.57s4.9-1.33,6.01-3.73c0,0-.97-18.09-19.71-19.82,0,0-18.83.39-22.93,20.1Z"/>
            <path class="cls-8" d="m69.2,18.02s8.28,52.62-2.57,66.97c0,0,11.13-4.43,12.51-13.43,0,0,8.78-38.47-9.94-53.53Z"/>
            <path class="cls-8" d="m41.57,17.8s-8.89,53.12,2.14,67.33c0,0-11.18-4.29-12.68-13.28,0,0-7.99-38.75,10.54-54.05Z"/>
          </g>
          <polygon class="cls-5" points="35.08 82.81 54.32 102.4 75.02 83.17 68.9 80.79 54.03 83.77 42.03 79.69 35.08 82.81"/>
          <polygon class="cls-4" points="35.08 82.81 44.36 78.65 53.87 82.31 63.34 78.53 73.31 82.57 59.3 91.5 53.88 84.31 48.14 91.57 35.08 82.81"/>
        </g>
      </g>
    </g>
  </g>
</svg>