<?xml version="1.0" encoding="UTF-8"?>
<svg xmlns="http://www.w3.org/2000/svg" xmlns:xlink="http://www.w3.org/1999/xlink" viewBox="0 0 104.66 104.66">
  <defs>
    <style>
      .cls-1 {
        fill: #fbbca0;
      }

      .cls-2 {
        fill: #14baab;
      }

      .cls-3 {
        isolation: isolate;
      }

      .cls-4 {
        fill: #dda78f;
      }

      .cls-5 {
        fill: #3c2415;
      }

      .cls-6 {
        clip-path: url(#clippath);
      }

      .cls-7 {
        fill: none;
      }

      .cls-8 {
        fill: #0c0000;
      }

      .cls-9 {
        fill: #e6e7e8;
        mix-blend-mode: multiply;
      }

      .cls-10 {
        fill: #ec524f;
      }
    </style>
    <clipPath id="clippath">
      <circle class="cls-7" cx="52.33" cy="52.33" r="52.33" transform="translate(-7.74 95.57) rotate(-80.74)"/>
    </clipPath>
  </defs>
  <g class="cls-3">
    <g id="Layer_2" data-name="Layer 2">
      <g id="Capa_1" data-name="Capa 1">
        <g class="cls-6">
          <circle class="cls-2" cx="52.33" cy="52.33" r="52.33" transform="translate(-7.74 95.57) rotate(-80.74)"/>
          <path class="cls-8" d="m28.38,47.93c-.29.43-1.19,36.82,5.2,44.27h36.2s9.89-27.94,3.15-44.27H28.17"/>
          <g>
            <rect class="cls-1" x="42.89" y="67.93" width="20.04" height="13.5"/>
            <path class="cls-9" d="m47.75,77.7c3.02,1.2,6.33,1.92,9.58,1.95,1.86.01,3.76-.22,5.6-.54v-11.17h-20.04v6.98c1.41,1.24,3.21,2.13,4.86,2.78Z"/>
            <g>
              <path class="cls-1" d="m74.6,42.53c.07-.5.91-1.31,1.28-1.58.82-.61,1.65.02,1.89.81.21.71.23,1.51.29,2.24.13,1.79-.15,3.55-.95,5.17-.54,1.08-1.38,1.97-2.38,2.64,0,0-1.08.54-1.29-.7,0,0,1.17-8.58,1.17-8.58Z"/>
              <path class="cls-4" d="m74.43,43.6c.05-.36.65-.93.92-1.13.59-.44,1.18.01,1.36.58.15.51.17,1.08.21,1.6.09,1.28-.11,2.54-.68,3.7-.39.77-.99,1.41-1.71,1.89,0,0-.77.38-.92-.5,0,0,.84-6.14.84-6.14Z"/>
            </g>
            <g>
              <path class="cls-1" d="m30.71,42.53c-.07-.5-.91-1.31-1.28-1.58-.82-.61-1.65.02-1.89.81-.22.71-.24,1.51-.29,2.24-.12,1.79.15,3.55.95,5.17.54,1.08,1.38,1.97,2.38,2.64,0,0,1.08.54,1.29-.7,0,0-1.17-8.58-1.17-8.58Z"/>
              <path class="cls-4" d="m30.88,43.6c-.05-.36-.65-.93-.92-1.13-.59-.44-1.18.01-1.35.58-.15.51-.17,1.08-.21,1.6-.09,1.28.11,2.54.68,3.7.39.77.99,1.41,1.71,1.89,0,0,.77.38.93-.5,0,0-.84-6.14-.84-6.14Z"/>
            </g>
            <path class="cls-1" d="m75.26,44.14c0,5.66-.98,11.38-3.64,16.27-2.33,4.28-5.83,7.71-9.59,10.45-3.05,2.22-6.32,4.81-10.17,4.49-4.02-.33-7.15-3.76-10.09-6.43-4.13-3.76-7.39-8.43-9.4-13.93-1.24-3.39-1.81-7.21-1.81-10.86,0-18.29,10.01-29.79,22.35-29.79s22.35,11.5,22.35,29.79Z"/>
            <path class="cls-1" d="m83.4,87.54l-21.76-6.53h-17.46l-21.76,6.53s-10.08,4.29-11.2,17.86h83.39c-1.12-13.57-11.21-17.86-11.21-17.86Z"/>
            <path class="cls-10" d="m83.4,87.54l-12.03-3.61-18.46,18.44-18.51-18.43-11.98,3.59s-10.08,4.29-11.2,17.86h83.39c-1.12-13.57-11.21-17.86-11.21-17.86Z"/>
          </g>
          <path class="cls-5" d="m37.74,21.61s10.76,17.07,37.45,19.98c0,0,5.05-19.45-13.72-28.9,0,0-14.36-5.93-23.73,8.93Z"/>
          <path class="cls-5" d="m40.5,25.06s-6.95,4.5-9.97,17.05c0,0-3.23-23.65,13.49-26.6l-3.53,9.56Z"/>
          <path class="cls-5" d="m67.78,39.62s7.16,45.56-4.16,58.46c0,0,14.47-2.15,15.19-22.07,0,0,2.58-40.69-7.21-54.73l-3.82,18.34Z"/>
          <path class="cls-5" d="m37.16,98.08s-16.66-1.98-12.08-53.21c0,0,1.15-28.46,17.81-29.11l-.96,10.8s-9.58,2.85-8.34,25.37c0,0-.97,36.27,3.57,46.16Z"/>
        </g>
      </g>
    </g>
  </g>
</svg>