<?xml version="1.0" encoding="UTF-8"?>
<svg xmlns="http://www.w3.org/2000/svg" xmlns:xlink="http://www.w3.org/1999/xlink" viewBox="0 0 104.66 104.66">
  <defs>
    <style>
      .cls-1 {
        fill: #fff;
      }

      .cls-2 {
        fill: #fbbca0;
      }

      .cls-3 {
        isolation: isolate;
      }

      .cls-4 {
        fill: #dda78f;
      }

      .cls-5 {
        fill: #002136;
      }

      .cls-6 {
        fill: #3c2415;
      }

      .cls-7 {
        fill: #d1d3d4;
      }

      .cls-7, .cls-8 {
        mix-blend-mode: multiply;
      }

      .cls-9 {
        fill: #e2e3e4;
      }

      .cls-10 {
        fill: #fbb040;
      }

      .cls-11 {
        clip-path: url(#clippath);
      }

      .cls-12 {
        fill: #002c41;
      }

      .cls-13 {
        fill: #003a54;
      }

      .cls-8 {
        fill: #e6e7e8;
      }
    </style>
    <clipPath id="clippath">
      <circle class="cls-13" cx="52.33" cy="52.33" r="52.33" transform="translate(-10.66 91.19) rotate(-76.67)"/>
    </clipPath>
  </defs>
  <g class="cls-3">
    <g id="Layer_2" data-name="Layer 2">
      <g id="Capa_1" data-name="Capa 1">
        <g>
          <circle class="cls-13" cx="52.33" cy="52.33" r="52.33" transform="translate(-10.66 91.19) rotate(-76.67)"/>
          <g class="cls-11">
            <rect class="cls-2" x="42.31" y="67.14" width="20.04" height="13.5"/>
            <path class="cls-8" d="m47.17,76.91c3.02,1.2,6.33,1.92,9.58,1.95,1.86.02,3.76-.22,5.6-.54v-11.17h-20.04v6.98c1.41,1.24,3.21,2.12,4.86,2.78Z"/>
            <g>
              <path class="cls-2" d="m74.45,42.13c.07-.49.93-1.29,1.31-1.56.84-.6,1.68.02,1.93.8.22.7.24,1.49.29,2.21.13,1.77-.15,3.51-.97,5.11-.55,1.07-1.41,1.94-2.43,2.6,0,0-1.1.53-1.32-.69,0,0,1.19-8.47,1.19-8.48Z"/>
              <path class="cls-4" d="m74.27,43.2c.05-.35.67-.92.93-1.12.6-.43,1.21.01,1.38.57.16.5.17,1.06.21,1.58.09,1.27-.11,2.51-.7,3.65-.39.76-1.01,1.39-1.74,1.86,0,0-.79.38-.94-.49,0,0,.85-6.06.85-6.07Z"/>
            </g>
            <g>
              <path class="cls-2" d="m29.71,42.13c-.07-.49-.93-1.29-1.31-1.56-.84-.6-1.68.02-1.93.8-.22.7-.24,1.49-.29,2.21-.13,1.77.15,3.51.97,5.11.55,1.07,1.41,1.94,2.43,2.6,0,0,1.1.53,1.32-.69,0,0-1.19-8.47-1.19-8.48Z"/>
              <path class="cls-4" d="m29.88,43.2c-.05-.35-.66-.92-.93-1.12-.6-.43-1.21.01-1.38.57-.16.5-.17,1.06-.21,1.58-.09,1.27.11,2.51.7,3.65.39.76,1.01,1.39,1.74,1.86,0,0,.79.38.94-.49,0,0-.85-6.06-.85-6.07Z"/>
            </g>
            <path class="cls-2" d="m75.12,43.73c0,5.59-1,11.24-3.72,16.08-2.38,4.23-5.94,7.62-9.77,10.32-3.11,2.19-6.44,4.75-10.37,4.44-4.1-.33-7.29-3.71-10.29-6.35-4.21-3.72-7.54-8.33-9.58-13.76-1.26-3.35-1.84-7.12-1.84-10.72,0-18.07,10.2-29.43,22.78-29.43s22.78,11.36,22.78,29.43Z"/>
            <path class="cls-2" d="m87.33,86.75l-24.98-6.53h-20.04l-24.98,6.53s-11.58,4.29-12.86,17.86h95.72c-1.29-13.57-12.86-17.86-12.86-17.86Z"/>
            <path class="cls-1" d="m87.33,86.75l-24.98-6.53h-20.04l-24.98,6.53s-11.58,4.29-12.86,17.86h95.72c-1.29-13.57-12.86-17.86-12.86-17.86Z"/>
            <path class="cls-12" d="m87.33,86.75l-18.48-4.83-16.51,22.7-16.33-22.74-18.66,4.88s-11.58,4.29-12.86,17.86h95.72c-1.29-13.57-12.86-17.86-12.86-17.86Z"/>
            <polygon class="cls-10" points="50.14 93.24 45.54 104.61 58.61 104.61 54.13 93.24 50.14 93.24"/>
            <g>
              <polygon class="cls-10" points="52.03 80.44 46.17 88.3 50.25 93.27 52.24 93.24 54.23 93.21 58.14 88.1 52.03 80.44"/>
              <path class="cls-7" d="m55.95,87.27c-.75,1.48-2.14,3.17-4.04,2.75-1.96-.43-2.86-2.28-2.4-4.16.44-1.83,1.62-3.36,2.28-5.09l-5.62,7.53,4.07,4.97,3.99-.06,3.91-5.1-1.65-2.07c-.16.42-.34.84-.54,1.24Z"/>
            </g>
            <path class="cls-6" d="m75.44,41.5s-3.72,17.38-16.19,22.38c0,0-1.56,3.86-6.73,3.86s-6.73-3.86-6.73-3.86c-12.48-5-16.19-22.38-16.19-22.38-1.08,19.45,12.91,27.91,12.91,27.91,7.63,6.24,10.01,5.17,10.01,5.17,0,0,2.38,1.07,10.01-5.17,0,0,13.86-7.88,12.91-27.91Z"/>
            <path class="cls-6" d="m52.33,58.08s-5.16-1.57-6.53,5.81c0,0-1.46-.19-3.77-2.04,0,0,3.46-8.65,10.3-3.77Z"/>
            <path class="cls-6" d="m52.77,58.08s5.16-1.57,6.53,5.81c0,0,1.46-.19,3.77-2.04,0,0-3.46-8.65-10.3-3.77Z"/>
            <path class="cls-6" d="m29.61,41.5s3.34-20.35,13.77-18.35c0,0,9.43,5.87,17.29-.14,0,0,9.54-.32,14.77,18.48,0,0,1.31-20.06-13.09-27.21,0,0-13.32-6.15-24.72,3,0,0-10.8,8.53-8.03,24.21Z"/>
            <polygon class="cls-5" points="52.33 104.61 36 81.87 22.94 85.28 39.63 97.03 35.34 98.92 43.06 104.61 52.33 104.61"/>
            <polygon class="cls-5" points="52.33 104.64 68.67 81.9 81.73 85.31 65.04 97.07 69.32 98.96 61.61 104.64 52.33 104.64"/>
            <polygon class="cls-9" points="32.48 80.69 42.28 76.1 52.26 80.27 62.25 76.1 72.72 80.69 57.92 90.6 52.26 82.5 46.17 90.6 32.48 80.69"/>
          </g>
        </g>
      </g>
    </g>
  </g>
</svg>