<svg width="110" height="43" viewBox="0 0 110 43" fill="none" xmlns="http://www.w3.org/2000/svg">
<path id="Vector" d="M5.34012 19.737C13.4322 14.487 22.0072 10.731 31.2596 8.29558C31.2596 6.47104 31.2563 4.64326 31.2628 2.81386C31.2628 2.46386 31.2466 2.10252 31.3244 1.7671C31.5788 0.670111 32.6093 -0.0282688 33.7549 0.080296C34.7725 0.175898 35.6151 1.04928 35.654 2.16409C35.7026 3.53979 35.6751 4.9171 35.6783 6.29442C35.6783 6.58446 35.6783 6.87451 35.6783 7.26016C48.5878 4.6303 61.4211 4.56548 74.3971 7.09164C74.3971 6.16641 74.3971 5.29141 74.3971 4.41641C74.3971 3.76826 74.3841 3.12011 74.3987 2.47196C74.4311 1.059 75.3271 0.0916406 76.604 0.0721962C77.8727 0.0527517 78.8223 0.999045 78.8596 2.42335C78.9017 4.0421 78.9049 5.66409 78.8531 7.28284C78.832 7.92289 79.0524 8.15298 79.6503 8.30691C88.4781 10.5997 96.7598 14.1678 104.473 19.0435C104.649 19.1553 104.836 19.2541 105.148 19.434C105.148 18.4261 105.148 17.5268 105.148 16.6275C105.148 15.1157 105.132 13.6023 105.155 12.0905C105.174 10.7553 106.132 9.78469 107.368 9.79766C108.635 9.81062 109.554 10.744 109.556 12.1018C109.566 22.2 109.561 32.2997 109.559 42.3979C109.559 42.5291 109.536 42.6604 109.515 42.897C108.132 42.897 106.766 42.9067 105.401 42.8824C105.273 42.8808 105.072 42.6863 105.037 42.547C104.105 38.9319 101.577 36.6764 98.4174 35.1224C91.398 31.671 83.0288 34.8826 79.9971 42.1062C79.7394 42.7203 79.438 42.952 78.7672 42.9245C77.3947 42.8678 76.019 42.9083 74.5964 42.9083C73.2644 37.7231 70.4433 33.6155 65.9744 30.7004C62.6283 28.5178 58.9258 27.4629 54.9445 27.5342C45.71 27.6979 38.0035 34.0595 35.8647 42.9083C34.4063 42.9083 32.9237 42.9375 31.4475 42.8759C31.2272 42.8662 30.9484 42.4627 30.8269 42.184C28.9716 37.95 25.841 35.1872 21.3348 34.121C14.8484 32.5849 8.28595 35.965 5.72414 42.1289C5.45354 42.7803 5.12623 42.9504 4.48456 42.9261C3.33248 42.8824 2.17553 42.9132 0.978079 42.9132C0.952153 42.6296 0.916504 42.4222 0.916504 42.2148C0.916504 32.2236 0.916504 22.2324 0.921365 12.2428C0.921365 10.9287 1.62299 10.0083 2.7297 9.81548C4.11836 9.57405 5.32067 10.603 5.33363 12.1002C5.35632 14.5826 5.34012 17.0666 5.34012 19.7338V19.737ZM35.7285 16.9224C48.6542 14.1597 61.4859 14.0803 74.3452 16.7815V11.6352C61.4309 8.96641 48.5975 9.03122 35.7285 11.7826V16.9224ZM105.134 29.5808C105.134 28.1338 105.097 26.8926 105.15 25.6562C105.176 25.0389 104.957 24.6889 104.458 24.3486C98.5082 20.2879 92.1417 17.0537 85.3394 14.6879C83.2394 13.9571 81.1038 13.3317 78.8709 12.622C78.8709 13.6185 78.8709 14.4497 78.8709 15.2826C78.8709 16.1155 78.8709 16.9986 78.8709 17.8655C88.2447 20.3722 96.9251 24.2546 105.135 29.5824L105.134 29.5808ZM5.36118 29.5402C9.37646 27.4014 13.2767 25.2106 17.279 23.2257C21.5325 21.1159 26.0209 19.5734 30.579 18.2398C30.835 18.1652 31.2272 17.9125 31.2336 17.7326C31.2855 16.1495 31.2628 14.5648 31.2628 12.8553C29.4366 13.4338 27.7093 13.9442 26.0063 14.5259C18.8734 16.9662 12.2153 20.3527 6.02553 24.6581C5.76141 24.8412 5.40169 25.1377 5.39035 25.3953C5.32877 26.8148 5.36118 28.2375 5.36118 29.5419V29.5402Z" fill="#1E1E1E"/>
</svg>
