<svg width="56" height="62" viewBox="0 0 56 62" fill="none" xmlns="http://www.w3.org/2000/svg">
<g id="Group 4">
<path id="Vector" d="M26.553 61.9111C26.1299 61.7474 25.6832 61.6267 25.2906 61.4089C24.837 61.1578 24.4916 60.7666 24.2585 60.2922C23.8229 59.403 23.0919 58.984 22.1222 58.9438C21.3135 58.9105 20.8057 58.468 20.6587 57.6662C20.5172 56.8977 21.1567 56.0834 21.9433 56.0362C22.1 56.0265 22.2595 56.0279 22.4163 56.0279C26.1951 56.0279 29.9738 56.0321 33.7526 56.0237C34.3837 56.0224 34.8845 56.2235 35.1966 56.7881C35.7238 57.7425 35.0579 58.8939 33.9537 58.9397C33.2698 58.9688 32.6511 59.1491 32.1767 59.6707C32.0366 59.8247 31.909 59.9967 31.8132 60.1812C31.3277 61.1162 30.5897 61.6988 29.5368 61.8625C29.5091 61.8667 29.4841 61.8944 29.4578 61.9111H26.5516H26.553Z" fill="#1E1E1E"/>
<path id="Vector_2" d="M28.2592 0C28.8238 0.181724 29.2774 0.484136 29.4203 1.1056C29.4508 1.236 29.4633 1.37334 29.4633 1.50789C29.4661 3.46247 29.4675 5.41843 29.4619 7.37301C29.4591 8.13597 28.914 8.75051 28.1815 8.8379C27.4546 8.92529 26.7624 8.44809 26.5848 7.71565C26.5418 7.53531 26.5502 7.3411 26.5488 7.15383C26.546 5.35601 26.571 3.55819 26.5377 1.76037C26.521 0.830938 26.8637 0.285765 27.7543 0H28.2592Z" fill="#1E1E1E"/>
<path id="Vector_3" d="M33.9481 48.6203C34.435 48.7146 34.8026 48.8769 35.0634 49.2209C35.4005 49.6662 35.4754 50.1587 35.2646 50.6719C35.0648 51.1561 34.7 51.4682 34.1687 51.55C33.9731 51.5806 33.772 51.5972 33.5736 51.5972C29.8143 51.6 26.0549 51.6 22.2956 51.5986C21.6006 51.5986 21.0471 51.3517 20.7572 50.6803C20.3979 49.8479 20.8834 48.9102 21.774 48.6993C21.8447 48.6827 21.9141 48.6549 22.0487 48.6119C21.9405 48.0668 21.8558 47.5119 21.7185 46.9695C21.2163 44.9844 20.1884 43.2684 18.9274 41.6842C17.8621 40.3456 16.7537 39.0416 15.7022 37.6932C14.3705 35.9856 13.3578 34.1087 12.882 31.9738C12.5574 30.52 12.4658 29.0537 12.5782 27.5652C12.7669 25.0877 13.5007 22.7918 14.8019 20.6819C16.812 17.4233 19.6516 15.2024 23.2888 14.0066C25.0381 13.431 26.8415 13.1868 28.6781 13.277C32.1905 13.4504 35.3229 14.6545 38.0043 16.9337C40.7274 19.2489 42.4545 22.1773 43.1758 25.6897C43.4893 27.2143 43.5684 28.7513 43.4144 30.2952C43.1772 32.6757 42.3629 34.8605 40.9521 36.7832C39.7924 38.3646 38.5245 39.8656 37.3038 41.3998C36.0248 43.0076 34.9164 44.7111 34.3712 46.7198C34.2048 47.3329 34.0938 47.96 33.9495 48.6189L33.9481 48.6203ZM24.6705 17.8034C24.6635 16.978 23.8936 16.4911 23.0918 16.8227C21.595 17.44 20.2564 18.3084 19.0939 19.4348C17.3585 21.1161 16.1614 23.122 15.5468 25.4664C15.3845 26.0823 15.6786 26.6649 16.2557 26.8494C16.8661 27.0436 17.4265 26.7579 17.6471 26.1267C17.7608 25.8021 17.8468 25.4678 17.9633 25.1445C18.6223 23.3204 19.7029 21.7903 21.19 20.5432C22.0237 19.844 22.9462 19.2988 23.9464 18.8744C24.4069 18.6788 24.6816 18.332 24.6705 17.8048V17.8034Z" fill="#1E1E1E"/>
<path id="Vector_4" d="M27.9707 55.2761C26.0244 55.2761 24.0782 55.2761 22.1319 55.2761C21.448 55.2761 20.8044 54.7753 20.6795 54.1538C20.5269 53.3853 20.8793 52.7014 21.5965 52.442C21.8267 52.3588 22.0875 52.3283 22.3344 52.3283C26.1215 52.3213 29.9086 52.3227 33.6971 52.3241C34.632 52.3241 35.1953 52.7541 35.3506 53.574C35.5157 54.441 34.8096 55.2747 33.9038 55.2761C31.9256 55.2789 29.9474 55.2761 27.9707 55.2761Z" fill="#1E1E1E"/>
<path id="Vector_5" d="M4.40755 26.5345C5.39663 26.5345 6.38571 26.5317 7.37479 26.5345C8.15995 26.5373 8.79529 27.1574 8.84661 27.9647C8.89239 28.6847 8.31809 29.3492 7.55651 29.4463C7.33872 29.474 7.11677 29.4851 6.89759 29.4865C5.15109 29.4893 3.4046 29.4907 1.6581 29.4865C0.823002 29.4865 0.255634 29.0925 0.0544893 28.3892C-0.204919 27.4806 0.495624 26.5387 1.44031 26.5345C2.42939 26.5304 3.41847 26.5345 4.40755 26.5345Z" fill="#1E1E1E"/>
<path id="Vector_6" d="M51.5948 29.4879C50.6696 29.4879 49.7443 29.492 48.819 29.4879C48.0269 29.4837 47.5151 29.1508 47.2681 28.4974C46.9241 27.5902 47.626 26.5414 48.5971 26.5373C50.5946 26.529 52.5936 26.5317 54.5912 26.5373C55.2862 26.5373 55.9479 27.1477 55.995 27.8149C56.0547 28.6569 55.572 29.3256 54.809 29.4407C54.5718 29.4768 54.329 29.4865 54.0876 29.4893C53.2567 29.4948 52.4258 29.492 51.5948 29.492V29.4879Z" fill="#1E1E1E"/>
<path id="Vector_7" d="M41.1394 13.4074C41.1228 12.9898 41.2906 12.6527 41.5778 12.3656C42.9622 10.9825 44.3439 9.5967 45.7297 8.21504C46.3165 7.62964 47.2084 7.62409 47.7925 8.19424C48.3723 8.76022 48.3973 9.7049 47.823 10.2848C46.4385 11.6817 45.0499 13.0758 43.6461 14.4561C43.1911 14.9042 42.6265 15.0276 42.0231 14.7682C41.4321 14.5157 41.1505 14.0441 41.1394 13.4088V13.4074Z" fill="#1E1E1E"/>
<path id="Vector_8" d="M48.2364 46.6116C48.2253 47.3676 47.959 47.8129 47.4221 48.0792C46.9116 48.3331 46.4108 48.2901 45.9364 47.9738C45.8324 47.9045 45.7339 47.824 45.6451 47.7352C44.3037 46.3979 42.9622 45.0593 41.6263 43.7165C41.0742 43.1616 40.9785 42.4472 41.3531 41.8229C41.8275 41.0308 42.9456 40.8769 43.6017 41.5288C45.0139 42.9299 46.4178 44.3393 47.823 45.7473C48.1018 46.0276 48.2489 46.3646 48.2364 46.6116Z" fill="#1E1E1E"/>
<path id="Vector_9" d="M14.8713 13.3657C14.874 14.0441 14.5675 14.4866 14.0251 14.7432C13.4771 15.0027 12.9375 14.9194 12.4658 14.5393C12.2217 14.3423 12.0081 14.1051 11.7847 13.8818C10.6153 12.7151 9.4459 11.5485 8.28064 10.3763C7.61617 9.70768 7.59398 8.81293 8.21544 8.19285C8.76339 7.64629 9.64843 7.59773 10.2005 8.14013C11.6571 9.57034 13.0956 11.0186 14.5314 12.4696C14.7825 12.7221 14.8949 13.0536 14.8699 13.3644L14.8713 13.3657Z" fill="#1E1E1E"/>
<path id="Vector_10" d="M14.8713 42.597C14.8935 43.0409 14.7034 43.3974 14.4052 43.697C13.054 45.0551 11.7057 46.4146 10.3406 47.7574C9.4778 48.6064 8.15856 48.2915 7.83257 47.1651C7.68691 46.6629 7.77015 46.176 8.14885 45.7931C9.57074 44.3574 11.001 42.9313 12.4339 41.5066C12.8279 41.1141 13.4716 41.01 13.9779 41.2431C14.5536 41.508 14.8643 41.9547 14.8713 42.5956V42.597Z" fill="#1E1E1E"/>
</g>
</svg>
