<svg width="67" height="64" viewBox="0 0 67 64" fill="none" xmlns="http://www.w3.org/2000/svg">
<g id="Group 6">
<path id="Vector" d="M4.05638 23.4339C3.10297 23.1364 2.08724 22.8295 1.07931 22.4992C0.0324331 22.1581 -0.251093 21.6035 0.220937 20.6142C0.470194 20.0923 0.837845 19.5798 1.26937 19.1981C3.79466 16.9579 6.34642 14.7458 8.90754 12.5476C10.171 11.4634 11.1773 11.7578 11.6447 13.3655C12.6074 16.6775 13.5531 19.9958 14.4442 23.3296C14.5984 23.9106 14.5345 24.5914 14.4083 25.1928C14.2463 25.9686 13.7198 26.2973 12.8879 26.0387C11.6836 25.6632 10.4654 25.3283 8.96986 24.8952C8.70814 27.1245 8.31244 29.2229 8.23922 31.3338C7.79056 44.4229 17.658 56.2845 30.7066 58.1741C42.2519 59.8457 51.2781 55.5818 57.8709 46.0369C58.9365 44.4946 60.2327 44.0615 61.5584 44.9246C62.9013 45.7985 63.0976 47.1726 62.1083 48.7709C51.9885 65.1346 29.1597 68.7457 14.441 56.2393C6.56764 49.5498 3.08272 40.8539 3.35846 30.6141C3.42233 28.2493 3.81024 25.8938 4.05794 23.4355L4.05638 23.4339Z" fill="#1E1E1E"/>
<path id="Vector_2" d="M35.2446 52.8634C28.1953 52.6375 22.5699 49.7866 18.4369 44.0942C17.3215 42.5582 17.4493 39.9036 18.655 38.4361C19.811 37.0293 21.386 36.3205 23.0513 35.727C24.9129 35.0633 26.879 34.543 28.5505 33.5444C29.6691 32.8761 30.4714 32.7624 31.646 33.1534C34.3333 34.0507 37.0315 33.842 39.7095 32.9322C40.1254 32.7904 40.7174 32.94 41.1552 33.1269C42.5681 33.7298 43.9266 34.4589 45.3411 35.0555C46.7634 35.6537 48.2917 36.023 49.6595 36.7178C52.2471 38.0295 53.1662 39.9955 52.6848 42.8121C52.6147 43.2187 52.3702 43.6222 52.1225 43.968C47.963 49.7523 42.2908 52.664 35.2415 52.8649L35.2446 52.8634Z" fill="#1E1E1E"/>
<path id="Vector_3" d="M35.1574 31.5348C29.4837 31.5161 24.8865 26.8861 24.8989 21.2015C24.9114 15.5434 29.5585 10.9399 35.2446 10.9524C40.9433 10.9649 45.5499 15.5559 45.5561 21.228C45.5623 26.9547 40.9199 31.5535 35.1574 31.5348Z" fill="#1E1E1E"/>
<path id="Vector_4" d="M64.4218 32.9182C62.9901 32.9462 61.8201 31.8448 61.775 30.4256C61.7282 28.9441 62.8639 27.7227 64.3205 27.69C65.7444 27.6573 67.0031 28.8942 67 30.3228C66.9969 31.7202 65.8347 32.8917 64.4218 32.9197V32.9182Z" fill="#1E1E1E"/>
<path id="Vector_5" d="M22.6167 7.90989C21.1741 7.88808 20.0711 6.76643 20.0696 5.31918C20.0696 3.84234 21.2863 2.63188 22.7242 2.67862C24.1153 2.72379 25.2962 3.92958 25.2993 5.30984C25.304 6.75864 24.0904 7.93326 22.6151 7.90989H22.6167Z" fill="#1E1E1E"/>
<path id="Vector_6" d="M13.1325 9.97717C13.1262 8.47539 14.2588 7.35841 15.773 7.37555C17.1891 7.39112 18.3482 8.55017 18.3497 9.9538C18.3497 11.3808 17.0863 12.6349 15.6764 12.6022C14.2713 12.571 13.1403 11.4026 13.134 9.97873L13.1325 9.97717Z" fill="#1E1E1E"/>
<path id="Vector_7" d="M66.1307 38.6074C66.151 40.1077 65.0106 41.2683 63.526 41.2589C62.1192 41.2496 60.9508 40.0983 60.9212 38.6916C60.8901 37.2693 62.1286 36.0183 63.5618 36.0245C64.9639 36.0308 66.1136 37.1851 66.1323 38.609L66.1307 38.6074Z" fill="#1E1E1E"/>
<path id="Vector_8" d="M61.5958 14.7489C61.602 16.1806 60.4913 17.3396 59.0783 17.3801C57.6669 17.4206 56.3801 16.1665 56.3848 14.7582C56.3895 13.353 57.5407 12.1847 58.949 12.1535C60.4399 12.1208 61.5896 13.2487 61.5958 14.7489Z" fill="#1E1E1E"/>
<path id="Vector_9" d="M62.8187 19.5377C64.2488 19.5393 65.3783 20.6578 65.397 22.0926C65.4172 23.5648 64.227 24.7768 62.7798 24.7597C61.4011 24.7441 60.2015 23.5555 60.1688 22.1721C60.1345 20.7311 61.3372 19.5346 62.8172 19.5377H62.8187Z" fill="#1E1E1E"/>
<path id="Vector_10" d="M40.6302 2.61474C40.6255 4.04018 39.4992 5.19923 38.0877 5.22883C36.6763 5.25998 35.4113 4.01214 35.4129 2.59138C35.4129 1.15192 36.6467 -0.0320529 38.1096 0.000662099C39.535 0.0318192 40.6348 1.17217 40.6302 2.61474Z" fill="#1E1E1E"/>
<path id="Vector_11" d="M32.2676 2.96682C32.2458 4.46392 31.0883 5.56221 29.5771 5.52326C28.1673 5.48588 27.0238 4.29879 27.0425 2.89204C27.0612 1.53359 28.2872 0.316906 29.655 0.301327C31.1023 0.284191 32.2878 1.49309 32.266 2.96682H32.2676Z" fill="#1E1E1E"/>
<path id="Vector_12" d="M45.9347 1.89969C47.4287 1.90436 48.5269 3.05095 48.4989 4.5792C48.4724 6.00464 47.3227 7.13564 45.902 7.13409C44.4781 7.13253 43.2707 5.87534 43.3003 4.42653C43.3299 3.02913 44.5108 1.89501 45.9347 1.89969Z" fill="#1E1E1E"/>
<path id="Vector_13" d="M53.3734 6.18068C54.8627 6.20404 55.9797 7.3849 55.9236 8.87732C55.8707 10.2794 54.6773 11.4151 53.2753 11.3948C51.8343 11.3746 50.6752 10.1314 50.7282 8.66234C50.7796 7.22911 51.9231 6.15575 53.3734 6.17912V6.18068Z" fill="#1E1E1E"/>
</g>
</svg>
