<svg width="66" height="66" viewBox="0 0 66 66" fill="none" xmlns="http://www.w3.org/2000/svg">
<g id="Group 5">
<path id="Vector" d="M52.0584 2.13031C53.5798 7.94742 57.2107 11.5735 63.0278 13.0853C62.7753 13.8253 62.534 14.5892 62.2559 15.3403C59.9626 21.5569 56.5634 27.0928 52.0488 31.9462C47.6939 36.6271 42.596 40.3171 36.9563 43.2864C33.6242 45.0395 30.1611 46.4858 26.6053 47.7163C26.332 47.8106 26.1658 47.7723 25.9581 47.5645C23.1694 44.7598 20.3711 41.9632 17.5696 39.1713C17.397 38.9987 17.3155 38.8612 17.4066 38.5959C19.6983 31.9238 22.7555 25.6449 27.0112 19.9924C33.3893 11.5208 41.5652 5.53588 51.678 2.24697C51.8059 2.20542 51.9369 2.17026 52.06 2.1335L52.0584 2.13031ZM48.9229 21.6017C48.9229 18.6372 46.5529 16.2096 43.6523 16.2064C40.6175 16.2032 38.1788 18.5908 38.174 21.5713C38.1692 24.507 40.6191 26.9553 43.5644 26.9585C46.5002 26.9617 48.9213 24.5422 48.9229 21.6017Z" fill="#1E1E1E"/>
<path id="Vector_2" d="M44.934 40.3298C44.9612 40.8572 45.0203 41.4357 45.0171 42.0126C45.0027 44.3235 44.6751 46.5864 43.9464 48.7854C42.7254 52.4755 40.6159 55.5886 37.8112 58.2478C34.9426 60.9694 31.609 62.9894 28.0372 64.6403C27.7 64.7969 27.358 64.9439 27.0176 65.0941C26.9617 65.1197 26.9025 65.1373 26.7555 65.19C26.8658 65.0142 26.9377 64.8976 27.0112 64.7841C28.8826 61.9427 30.4599 58.9606 31.4076 55.6733C31.8807 54.0304 32.1971 52.3572 32.1044 50.6424C32.0469 49.5845 31.8535 48.5345 31.7256 47.5101C33.915 46.4378 36.2099 45.407 38.4153 44.2085C40.6255 43.0083 42.743 41.6403 44.9324 40.3282L44.934 40.3298Z" fill="#1E1E1E"/>
<path id="Vector_3" d="M24.7994 20.2225C23.5034 22.3831 22.137 24.5006 20.9368 26.7076C19.7366 28.9146 18.7027 31.2095 17.6255 33.4085C16.5964 33.2806 15.5224 33.0617 14.4421 33.0281C11.8835 32.9482 9.45441 33.6034 7.094 34.5367C4.75437 35.462 2.56336 36.6702 0.46345 38.051C0.330807 38.1388 0.196567 38.2235 0 38.2715C0.0815035 38.0733 0.156614 37.872 0.24451 37.6754C1.68121 34.4376 3.42155 31.3836 5.70525 28.6605C8.97657 24.7579 12.9686 21.966 17.9691 20.7323C20.1218 20.2017 22.3048 20.0515 24.5118 20.1761C24.6316 20.1825 24.7499 20.2145 24.8026 20.2225H24.7994Z" fill="#1E1E1E"/>
<path id="Vector_4" d="M53.6069 1.66523C57.3737 0.650432 61.1692 0.0351584 65.1133 0C65.1405 3.94892 64.4709 7.76521 63.4753 11.5367C58.3997 10.6706 54.3501 6.29974 53.6069 1.66523Z" fill="#1E1E1E"/>
<path id="Vector_5" d="M21.4993 49.9169C20.7466 50.6697 19.9492 51.4671 19.1837 52.2342C17.0965 50.1471 14.987 48.0376 12.8999 45.9504C13.667 45.1833 14.4565 44.3939 15.2172 43.6332C17.2979 45.7139 19.4138 47.8298 21.4993 49.9153V49.9169Z" fill="#1E1E1E"/>
<path id="Vector_6" d="M26.1818 50.0304C25.819 50.3948 25.4435 50.7719 25.0919 51.1251C21.4083 47.4415 17.7086 43.7434 14.0394 40.0726C14.3894 39.721 14.7713 39.3391 15.1293 38.9795C18.7858 42.6359 22.4854 46.3356 26.1802 50.0304H26.1818Z" fill="#1E1E1E"/>
<path id="Vector_7" d="M13.3074 52.7407C13.2339 52.8638 13.1572 53.0843 13.0102 53.2346C9.80919 56.4484 6.60178 59.6558 3.39119 62.86C3.02362 63.2259 2.55537 63.2387 2.23096 62.9143C1.90494 62.5883 1.92093 62.1025 2.29968 61.7221C4.41398 59.6014 6.53466 57.4855 8.65375 55.3696C9.74366 54.2813 10.84 53.1962 11.9251 52.1047C12.1872 51.841 12.4892 51.7931 12.812 51.9161C13.1317 52.0392 13.2723 52.3125 13.3074 52.7391V52.7407Z" fill="#1E1E1E"/>
<path id="Vector_8" d="M8.94142 42.2013C8.88549 42.2987 8.81197 42.5193 8.66495 42.6663C6.48353 44.8621 4.29412 47.0515 2.10311 49.2377C1.75153 49.5877 1.25452 49.5893 0.939692 49.2633C0.644042 48.9565 0.650434 48.4594 0.984439 48.1254C3.17864 45.9232 5.37604 43.7274 7.57503 41.5316C7.83872 41.268 8.15355 41.2104 8.49715 41.3654C8.80398 41.5029 8.92863 41.7586 8.93822 42.2044L8.94142 42.2013Z" fill="#1E1E1E"/>
<path id="Vector_9" d="M23.9109 57.0173C23.7942 57.2091 23.7111 57.4328 23.5577 57.5878C21.3843 59.774 19.2029 61.9539 17.0215 64.1321C16.6555 64.4981 16.1952 64.5156 15.866 64.1896C15.5368 63.8636 15.5496 63.4002 15.9156 63.0342C17.9611 60.9838 20.0099 58.9366 22.0587 56.8895C22.2249 56.7217 22.3879 56.5507 22.5621 56.3909C22.8098 56.1623 23.1023 56.1543 23.3963 56.271C23.7047 56.3941 23.847 56.6434 23.9125 57.0189L23.9109 57.0173Z" fill="#1E1E1E"/>
<path id="Vector_10" d="M2.56177 56.0329C2.10311 56.0201 1.81545 55.8938 1.74354 55.5982C1.68121 55.3473 1.76591 55.0596 1.79627 54.7879C1.80107 54.748 1.857 54.7128 1.89216 54.6777C3.99207 52.5777 6.09359 50.4778 8.19191 48.3747C8.42842 48.1382 8.7033 48.0775 9.01014 48.1606C9.31697 48.2421 9.48797 48.4722 9.5503 48.7679C9.62061 49.1051 9.44961 49.3608 9.21789 49.5909C8.06405 50.7399 6.91342 51.8922 5.76278 53.0444C4.87583 53.9313 3.99368 54.8263 3.09394 55.7021C2.91975 55.8715 2.67204 55.9673 2.56177 56.0329Z" fill="#1E1E1E"/>
<path id="Vector_11" d="M9.05168 62.6746C9.15716 62.4876 9.22747 62.2655 9.3745 62.1184C11.4488 60.0281 13.5328 57.9458 15.6183 55.865C15.9763 55.5071 16.4589 55.4895 16.7817 55.7995C17.1109 56.1159 17.1141 56.597 16.753 56.9597C14.6658 59.0565 12.5723 61.1452 10.4804 63.2371C10.2151 63.5024 9.89229 63.5647 9.55508 63.4177C9.25784 63.2883 9.10601 63.039 9.05328 62.673L9.05168 62.6746Z" fill="#1E1E1E"/>
</g>
</svg>
